<mxfile host="app.diagrams.net" modified="2021-06-06T21:14:50.434Z" agent="5.0 (Windows)" etag="P4pauYZTn9jM-6xyuHzf" version="14.5.10" type="github">
  <diagram id="vu9q2TfFeXYQl1ZxemW1" name="Page-1">
    <mxGraphModel dx="868" dy="439" grid="1" gridSize="10" guides="1" tooltips="1" connect="1" arrows="1" fold="1" page="1" pageScale="1" pageWidth="827" pageHeight="1169" math="0" shadow="0">
      <root>
        <mxCell id="0" />
        <mxCell id="1" parent="0" />
        <mxCell id="s8llVcQ40oUD1Y_5SZDA-6" value="ROL" style="swimlane;fontStyle=0;childLayout=stackLayout;horizontal=1;startSize=26;fillColor=none;horizontalStack=0;resizeParent=1;resizeParentMax=0;resizeLast=0;collapsible=1;marginBottom=0;" vertex="1" parent="1">
          <mxGeometry x="40" y="40" width="140" height="104" as="geometry" />
        </mxCell>
        <mxCell id="s8llVcQ40oUD1Y_5SZDA-7" value="+rol_id" style="text;strokeColor=none;fillColor=none;align=left;verticalAlign=top;spacingLeft=4;spacingRight=4;overflow=hidden;rotatable=0;points=[[0,0.5],[1,0.5]];portConstraint=eastwest;" vertex="1" parent="s8llVcQ40oUD1Y_5SZDA-6">
          <mxGeometry y="26" width="140" height="26" as="geometry" />
        </mxCell>
        <mxCell id="s8llVcQ40oUD1Y_5SZDA-8" value="+nombre" style="text;strokeColor=none;fillColor=none;align=left;verticalAlign=top;spacingLeft=4;spacingRight=4;overflow=hidden;rotatable=0;points=[[0,0.5],[1,0.5]];portConstraint=eastwest;" vertex="1" parent="s8llVcQ40oUD1Y_5SZDA-6">
          <mxGeometry y="52" width="140" height="26" as="geometry" />
        </mxCell>
        <mxCell id="s8llVcQ40oUD1Y_5SZDA-9" value="+ tipo&#xa;" style="text;strokeColor=none;fillColor=none;align=left;verticalAlign=top;spacingLeft=4;spacingRight=4;overflow=hidden;rotatable=0;points=[[0,0.5],[1,0.5]];portConstraint=eastwest;" vertex="1" parent="s8llVcQ40oUD1Y_5SZDA-6">
          <mxGeometry y="78" width="140" height="26" as="geometry" />
        </mxCell>
        <mxCell id="s8llVcQ40oUD1Y_5SZDA-10" value="USUARIO" style="swimlane;fontStyle=0;childLayout=stackLayout;horizontal=1;startSize=26;fillColor=none;horizontalStack=0;resizeParent=1;resizeParentMax=0;resizeLast=0;collapsible=1;marginBottom=0;" vertex="1" parent="1">
          <mxGeometry x="230" y="40" width="140" height="214" as="geometry" />
        </mxCell>
        <mxCell id="s8llVcQ40oUD1Y_5SZDA-11" value="+ id_usuario" style="text;strokeColor=none;fillColor=none;align=left;verticalAlign=top;spacingLeft=4;spacingRight=4;overflow=hidden;rotatable=0;points=[[0,0.5],[1,0.5]];portConstraint=eastwest;" vertex="1" parent="s8llVcQ40oUD1Y_5SZDA-10">
          <mxGeometry y="26" width="140" height="24" as="geometry" />
        </mxCell>
        <mxCell id="s8llVcQ40oUD1Y_5SZDA-12" value="+ nombre" style="text;strokeColor=none;fillColor=none;align=left;verticalAlign=top;spacingLeft=4;spacingRight=4;overflow=hidden;rotatable=0;points=[[0,0.5],[1,0.5]];portConstraint=eastwest;" vertex="1" parent="s8llVcQ40oUD1Y_5SZDA-10">
          <mxGeometry y="50" width="140" height="26" as="geometry" />
        </mxCell>
        <mxCell id="s8llVcQ40oUD1Y_5SZDA-13" value="+ contraseÃ±a" style="text;strokeColor=none;fillColor=none;align=left;verticalAlign=top;spacingLeft=4;spacingRight=4;overflow=hidden;rotatable=0;points=[[0,0.5],[1,0.5]];portConstraint=eastwest;" vertex="1" parent="s8llVcQ40oUD1Y_5SZDA-10">
          <mxGeometry y="76" width="140" height="34" as="geometry" />
        </mxCell>
        <mxCell id="s8llVcQ40oUD1Y_5SZDA-18" value="+ correo&#xa;" style="text;strokeColor=none;fillColor=none;align=left;verticalAlign=top;spacingLeft=4;spacingRight=4;overflow=hidden;rotatable=0;points=[[0,0.5],[1,0.5]];portConstraint=eastwest;" vertex="1" parent="s8llVcQ40oUD1Y_5SZDA-10">
          <mxGeometry y="110" width="140" height="26" as="geometry" />
        </mxCell>
        <mxCell id="s8llVcQ40oUD1Y_5SZDA-17" value="+ telefono" style="text;strokeColor=none;fillColor=none;align=left;verticalAlign=top;spacingLeft=4;spacingRight=4;overflow=hidden;rotatable=0;points=[[0,0.5],[1,0.5]];portConstraint=eastwest;" vertex="1" parent="s8llVcQ40oUD1Y_5SZDA-10">
          <mxGeometry y="136" width="140" height="26" as="geometry" />
        </mxCell>
        <mxCell id="s8llVcQ40oUD1Y_5SZDA-16" value="+ direccion" style="text;strokeColor=none;fillColor=none;align=left;verticalAlign=top;spacingLeft=4;spacingRight=4;overflow=hidden;rotatable=0;points=[[0,0.5],[1,0.5]];portConstraint=eastwest;" vertex="1" parent="s8llVcQ40oUD1Y_5SZDA-10">
          <mxGeometry y="162" width="140" height="26" as="geometry" />
        </mxCell>
        <mxCell id="s8llVcQ40oUD1Y_5SZDA-20" value="+ id_rol" style="text;strokeColor=none;fillColor=none;align=left;verticalAlign=top;spacingLeft=4;spacingRight=4;overflow=hidden;rotatable=0;points=[[0,0.5],[1,0.5]];portConstraint=eastwest;" vertex="1" parent="s8llVcQ40oUD1Y_5SZDA-10">
          <mxGeometry y="188" width="140" height="26" as="geometry" />
        </mxCell>
        <mxCell id="s8llVcQ40oUD1Y_5SZDA-22" value="" style="endArrow=none;endFill=0;endSize=12;html=1;entryX=1;entryY=0.5;entryDx=0;entryDy=0;exitX=0;exitY=0.5;exitDx=0;exitDy=0;edgeStyle=orthogonalEdgeStyle;" edge="1" parent="1" source="s8llVcQ40oUD1Y_5SZDA-20" target="s8llVcQ40oUD1Y_5SZDA-7">
          <mxGeometry width="160" relative="1" as="geometry">
            <mxPoint x="150" y="280" as="sourcePoint" />
            <mxPoint x="310" y="280" as="targetPoint" />
          </mxGeometry>
        </mxCell>
        <mxCell id="s8llVcQ40oUD1Y_5SZDA-23" value="MATERIA PRIMA" style="swimlane;fontStyle=0;childLayout=stackLayout;horizontal=1;startSize=26;fillColor=none;horizontalStack=0;resizeParent=1;resizeParentMax=0;resizeLast=0;collapsible=1;marginBottom=0;" vertex="1" parent="1">
          <mxGeometry x="610" y="170" width="140" height="182" as="geometry" />
        </mxCell>
        <mxCell id="s8llVcQ40oUD1Y_5SZDA-24" value="+ id_insumo" style="text;strokeColor=none;fillColor=none;align=left;verticalAlign=top;spacingLeft=4;spacingRight=4;overflow=hidden;rotatable=0;points=[[0,0.5],[1,0.5]];portConstraint=eastwest;" vertex="1" parent="s8llVcQ40oUD1Y_5SZDA-23">
          <mxGeometry y="26" width="140" height="26" as="geometry" />
        </mxCell>
        <mxCell id="s8llVcQ40oUD1Y_5SZDA-27" value="+ nombre&#xa;" style="text;strokeColor=none;fillColor=none;align=left;verticalAlign=top;spacingLeft=4;spacingRight=4;overflow=hidden;rotatable=0;points=[[0,0.5],[1,0.5]];portConstraint=eastwest;" vertex="1" parent="s8llVcQ40oUD1Y_5SZDA-23">
          <mxGeometry y="52" width="140" height="26" as="geometry" />
        </mxCell>
        <mxCell id="s8llVcQ40oUD1Y_5SZDA-25" value="+ tipo " style="text;strokeColor=none;fillColor=none;align=left;verticalAlign=top;spacingLeft=4;spacingRight=4;overflow=hidden;rotatable=0;points=[[0,0.5],[1,0.5]];portConstraint=eastwest;" vertex="1" parent="s8llVcQ40oUD1Y_5SZDA-23">
          <mxGeometry y="78" width="140" height="26" as="geometry" />
        </mxCell>
        <mxCell id="s8llVcQ40oUD1Y_5SZDA-26" value="+ cantidad" style="text;strokeColor=none;fillColor=none;align=left;verticalAlign=top;spacingLeft=4;spacingRight=4;overflow=hidden;rotatable=0;points=[[0,0.5],[1,0.5]];portConstraint=eastwest;" vertex="1" parent="s8llVcQ40oUD1Y_5SZDA-23">
          <mxGeometry y="104" width="140" height="26" as="geometry" />
        </mxCell>
        <mxCell id="s8llVcQ40oUD1Y_5SZDA-28" value="+ fecha" style="text;strokeColor=none;fillColor=none;align=left;verticalAlign=top;spacingLeft=4;spacingRight=4;overflow=hidden;rotatable=0;points=[[0,0.5],[1,0.5]];portConstraint=eastwest;" vertex="1" parent="s8llVcQ40oUD1Y_5SZDA-23">
          <mxGeometry y="130" width="140" height="26" as="geometry" />
        </mxCell>
        <mxCell id="s8llVcQ40oUD1Y_5SZDA-29" value="+ id_cargo" style="text;strokeColor=none;fillColor=none;align=left;verticalAlign=top;spacingLeft=4;spacingRight=4;overflow=hidden;rotatable=0;points=[[0,0.5],[1,0.5]];portConstraint=eastwest;" vertex="1" parent="s8llVcQ40oUD1Y_5SZDA-23">
          <mxGeometry y="156" width="140" height="26" as="geometry" />
        </mxCell>
        <mxCell id="s8llVcQ40oUD1Y_5SZDA-30" value="" style="endArrow=none;endFill=0;endSize=12;html=1;entryX=1;entryY=0.5;entryDx=0;entryDy=0;exitX=0;exitY=0.5;exitDx=0;exitDy=0;" edge="1" parent="1" source="s8llVcQ40oUD1Y_5SZDA-36" target="s8llVcQ40oUD1Y_5SZDA-11">
          <mxGeometry width="160" relative="1" as="geometry">
            <mxPoint x="310" y="240" as="sourcePoint" />
            <mxPoint x="470" y="240" as="targetPoint" />
            <Array as="points">
              <mxPoint x="400" y="157" />
              <mxPoint x="400" y="78" />
            </Array>
          </mxGeometry>
        </mxCell>
        <mxCell id="s8llVcQ40oUD1Y_5SZDA-31" value="PERSONAL" style="swimlane;fontStyle=0;childLayout=stackLayout;horizontal=1;startSize=26;fillColor=none;horizontalStack=0;resizeParent=1;resizeParentMax=0;resizeLast=0;collapsible=1;marginBottom=0;" vertex="1" parent="1">
          <mxGeometry x="430" y="40" width="140" height="130" as="geometry" />
        </mxCell>
        <mxCell id="s8llVcQ40oUD1Y_5SZDA-32" value="+id_personal" style="text;strokeColor=none;fillColor=none;align=left;verticalAlign=top;spacingLeft=4;spacingRight=4;overflow=hidden;rotatable=0;points=[[0,0.5],[1,0.5]];portConstraint=eastwest;" vertex="1" parent="s8llVcQ40oUD1Y_5SZDA-31">
          <mxGeometry y="26" width="140" height="26" as="geometry" />
        </mxCell>
        <mxCell id="s8llVcQ40oUD1Y_5SZDA-33" value="+ nombre&#xa;" style="text;strokeColor=none;fillColor=none;align=left;verticalAlign=top;spacingLeft=4;spacingRight=4;overflow=hidden;rotatable=0;points=[[0,0.5],[1,0.5]];portConstraint=eastwest;" vertex="1" parent="s8llVcQ40oUD1Y_5SZDA-31">
          <mxGeometry y="52" width="140" height="26" as="geometry" />
        </mxCell>
        <mxCell id="s8llVcQ40oUD1Y_5SZDA-34" value="+ cargo" style="text;strokeColor=none;fillColor=none;align=left;verticalAlign=top;spacingLeft=4;spacingRight=4;overflow=hidden;rotatable=0;points=[[0,0.5],[1,0.5]];portConstraint=eastwest;" vertex="1" parent="s8llVcQ40oUD1Y_5SZDA-31">
          <mxGeometry y="78" width="140" height="26" as="geometry" />
        </mxCell>
        <mxCell id="s8llVcQ40oUD1Y_5SZDA-36" value="+ id_usuario&#xa;" style="text;strokeColor=none;fillColor=none;align=left;verticalAlign=top;spacingLeft=4;spacingRight=4;overflow=hidden;rotatable=0;points=[[0,0.5],[1,0.5]];portConstraint=eastwest;" vertex="1" parent="s8llVcQ40oUD1Y_5SZDA-31">
          <mxGeometry y="104" width="140" height="26" as="geometry" />
        </mxCell>
        <mxCell id="s8llVcQ40oUD1Y_5SZDA-37" value="CARGO" style="swimlane;fontStyle=0;childLayout=stackLayout;horizontal=1;startSize=26;fillColor=none;horizontalStack=0;resizeParent=1;resizeParentMax=0;resizeLast=0;collapsible=1;marginBottom=0;" vertex="1" parent="1">
          <mxGeometry x="620" y="40" width="140" height="104" as="geometry" />
        </mxCell>
        <mxCell id="s8llVcQ40oUD1Y_5SZDA-38" value="+ id_cargo" style="text;strokeColor=none;fillColor=none;align=left;verticalAlign=top;spacingLeft=4;spacingRight=4;overflow=hidden;rotatable=0;points=[[0,0.5],[1,0.5]];portConstraint=eastwest;" vertex="1" parent="s8llVcQ40oUD1Y_5SZDA-37">
          <mxGeometry y="26" width="140" height="26" as="geometry" />
        </mxCell>
        <mxCell id="s8llVcQ40oUD1Y_5SZDA-39" value="+ seccion" style="text;strokeColor=none;fillColor=none;align=left;verticalAlign=top;spacingLeft=4;spacingRight=4;overflow=hidden;rotatable=0;points=[[0,0.5],[1,0.5]];portConstraint=eastwest;" vertex="1" parent="s8llVcQ40oUD1Y_5SZDA-37">
          <mxGeometry y="52" width="140" height="26" as="geometry" />
        </mxCell>
        <mxCell id="s8llVcQ40oUD1Y_5SZDA-40" value="+ id_personal" style="text;strokeColor=none;fillColor=none;align=left;verticalAlign=top;spacingLeft=4;spacingRight=4;overflow=hidden;rotatable=0;points=[[0,0.5],[1,0.5]];portConstraint=eastwest;" vertex="1" parent="s8llVcQ40oUD1Y_5SZDA-37">
          <mxGeometry y="78" width="140" height="26" as="geometry" />
        </mxCell>
        <mxCell id="s8llVcQ40oUD1Y_5SZDA-41" value="" style="endArrow=none;endFill=0;endSize=12;html=1;entryX=1.029;entryY=0.769;entryDx=0;entryDy=0;exitX=0;exitY=0.5;exitDx=0;exitDy=0;entryPerimeter=0;" edge="1" parent="1" source="s8llVcQ40oUD1Y_5SZDA-40" target="s8llVcQ40oUD1Y_5SZDA-32">
          <mxGeometry width="160" relative="1" as="geometry">
            <mxPoint x="610" y="130" as="sourcePoint" />
            <mxPoint x="590" y="120" as="targetPoint" />
            <Array as="points">
              <mxPoint x="590" y="130" />
              <mxPoint x="590" y="90" />
            </Array>
          </mxGeometry>
        </mxCell>
        <mxCell id="s8llVcQ40oUD1Y_5SZDA-42" value="" style="endArrow=none;endFill=0;endSize=12;html=1;entryX=1;entryY=0.5;entryDx=0;entryDy=0;exitX=1;exitY=0.5;exitDx=0;exitDy=0;" edge="1" parent="1" source="s8llVcQ40oUD1Y_5SZDA-29" target="s8llVcQ40oUD1Y_5SZDA-38">
          <mxGeometry width="160" relative="1" as="geometry">
            <mxPoint x="640" y="170" as="sourcePoint" />
            <mxPoint x="800" y="170" as="targetPoint" />
            <Array as="points">
              <mxPoint x="790" y="340" />
              <mxPoint x="790" y="79" />
            </Array>
          </mxGeometry>
        </mxCell>
      </root>
    </mxGraphModel>
  </diagram>
</mxfile>
